# Blender v2.79 (sub 0) OBJ File: 'player.blend'
# www.blender.org
mtllib player.mtl
o Cube
v 1.000000 1.452018 -0.454963
v 1.000000 1.452018 0.326677
v -1.000000 1.452018 0.326677
v -1.000000 1.452018 -0.454964
v 1.000000 2.796601 -0.454963
v 0.999999 2.796601 0.326677
v -1.000000 2.796601 0.326676
v -1.000000 2.796601 -0.454964
v 1.000000 4.262025 -0.454963
v 0.999999 4.262025 0.326677
v -1.000000 4.262025 0.326676
v -1.000000 4.262025 -0.454964
v 1.000000 4.552871 -0.454963
v 0.999999 4.552871 0.326677
v -1.000000 4.552871 0.326676
v -1.000000 4.552871 -0.454964
v 1.000000 4.767200 -0.454963
v 0.999999 4.767200 0.326677
v -1.000000 4.767200 0.326676
v -1.000000 4.767200 -0.454964
v 0.388889 1.452018 -0.454964
v 0.388889 1.452018 0.326677
v 0.388889 2.796601 -0.454963
v 0.388888 2.796601 0.326677
v 0.388889 4.262025 -0.454963
v 0.388888 4.262025 0.326677
v 0.388889 4.552871 -0.454963
v 0.388888 4.552871 0.326677
v 0.388889 4.767200 -0.454963
v 0.388888 4.767200 0.326677
v -0.424648 1.452018 -0.454964
v -0.424648 1.452018 0.326677
v -0.424648 2.796601 -0.454963
v -0.424648 2.796601 0.326677
v -0.424648 4.262025 -0.454963
v -0.424648 4.262025 0.326677
v -0.424648 4.552871 -0.454963
v -0.424648 4.552871 0.326677
v -0.424648 4.767200 -0.454963
v -0.424648 4.767200 0.326677
v 1.000000 -0.061939 -0.454963
v 1.000000 -0.061939 0.326677
v 0.388889 -0.061939 -0.454964
v 0.388889 -0.061939 0.326677
v -1.000000 -0.069945 0.326677
v -1.000000 -0.069945 -0.454964
v -0.424648 -0.069945 -0.454964
v -0.424648 -0.069945 0.326677
v 1.722183 4.262025 -0.454962
v 1.722182 4.262025 0.326678
v 1.722183 4.552871 -0.454962
v 1.722182 4.552871 0.326678
v -1.765915 4.262025 0.326676
v -1.765915 4.262025 -0.454964
v -1.765915 4.552871 0.326676
v -1.765915 4.552871 -0.454964
v -1.234030 4.262025 0.326676
v -1.234029 4.262025 -0.454964
v -1.234029 4.552871 -0.454964
v -1.234030 4.552871 0.326676
v 1.228426 4.552871 -0.454963
v 1.228426 4.262025 -0.454963
v 1.228424 4.262025 0.326678
v 1.228424 4.552871 0.326678
v 1.722183 2.668321 -0.454962
v 1.722182 2.668321 0.326678
v 1.228426 2.668321 -0.454963
v 1.228424 2.668321 0.326678
v -1.765915 2.701155 0.326676
v -1.765915 2.701155 -0.454964
v -1.234030 2.701155 0.326676
v -1.234029 2.701155 -0.454964
v 0.388889 7.028324 -0.454963
v 0.388888 7.028324 0.326677
v -0.424648 7.028324 -0.454963
v -0.424648 7.028324 0.326677
v 0.388888 5.312530 0.326677
v -0.424648 5.312530 0.326677
v -0.424648 5.312530 -0.454963
v 0.388889 5.312530 -0.454963
v 1.009379 7.028324 -0.454962
v 1.009378 7.028324 0.326678
v 1.009378 5.312530 0.326678
v 1.009379 5.312530 -0.454962
v -1.064953 7.028324 -0.454964
v -1.064954 7.028324 0.326676
v -1.064954 5.312530 0.326676
v -1.064953 5.312530 -0.454964
v 0.388889 7.028324 -0.712022
v -0.424648 7.028324 -0.712023
v -0.424648 5.312530 -0.712023
v 0.388889 5.312530 -0.712022
v 1.009379 7.028324 -0.712022
v 1.009379 5.312530 -0.712022
v -1.064953 7.028324 -0.712023
v -1.064953 5.312530 -0.712023
v 0.388888 7.028324 0.515511
v -0.424649 7.028324 0.515511
v 0.388888 5.312530 0.515511
v -0.424649 5.312530 0.515511
v 1.009378 7.028324 0.515512
v 1.009378 5.312530 0.515512
v -1.064954 7.028324 0.515510
v -1.064954 5.312530 0.515510
v 0.388889 0.220073 0.326677
v 1.000000 0.220073 0.326677
v 1.000000 0.220073 -0.454963
v 0.388889 0.220073 -0.454964
v -0.424648 0.202364 0.326677
v -0.424648 0.202364 -0.454964
v -1.000000 0.202364 -0.454964
v -1.000000 0.202364 0.326677
v 1.000000 -0.061939 -0.712872
v 0.388889 -0.061939 -0.712872
v 1.000000 0.220073 -0.712872
v 0.388889 0.220073 -0.712872
v -1.000000 -0.069945 -0.695161
v -0.424648 -0.069945 -0.695161
v -0.424648 0.202364 -0.695161
v -1.000000 0.202364 -0.695161
vt 0.193633 0.931573
vt 0.285914 0.899424
vt 0.285914 0.931573
vt 0.327111 0.409522
vt 0.234830 0.582532
vt 0.234830 0.409522
vt 0.187194 0.719485
vt 0.094913 0.560742
vt 0.187194 0.560742
vt 0.780529 0.000877
vt 0.712603 0.159620
vt 0.712603 0.000877
vt 0.487608 0.569872
vt 0.328865 0.662153
vt 0.328865 0.569872
vt 0.292853 0.839032
vt 0.451596 0.771105
vt 0.451596 0.839032
vt 0.933977 0.879420
vt 0.861829 0.913758
vt 0.861829 0.879420
vt 0.068804 0.590301
vt 0.000877 0.763310
vt 0.000877 0.590301
vt 0.761960 0.161374
vt 0.689811 0.334384
vt 0.689811 0.161374
vt 0.421147 0.395108
vt 0.328865 0.568118
vt 0.328865 0.395108
vt 0.487745 0.955002
vt 0.415596 0.980306
vt 0.415596 0.955002
vt 0.922624 0.781619
vt 0.980906 0.815976
vt 0.922612 0.815956
vt 0.764027 0.779865
vt 0.826822 0.595587
vt 0.826822 0.779865
vt 0.940014 0.323336
vt 0.905676 0.255410
vt 0.940014 0.255410
vt 0.068804 0.765065
vt 0.000877 0.857346
vt 0.000877 0.765065
vt 0.166614 0.939339
vt 0.074333 0.964642
vt 0.074333 0.939339
vt 0.193633 0.958631
vt 0.285914 0.933327
vt 0.285914 0.958631
vt 0.193633 0.985689
vt 0.261559 0.960385
vt 0.261559 0.985689
vt 0.905676 0.350395
vt 0.977825 0.325091
vt 0.977825 0.350395
vt 0.924113 0.000877
vt 0.851965 0.093158
vt 0.851965 0.000877
vt 0.227051 0.662449
vt 0.192714 0.590301
vt 0.227051 0.590301
vt 0.616749 0.919800
vt 0.520702 0.945104
vt 0.520702 0.919800
vt 0.518948 0.391264
vt 0.422901 0.564273
vt 0.422901 0.391264
vt 0.745210 0.391264
vt 0.673062 0.564273
vt 0.673062 0.391264
vt 0.860074 0.879420
vt 0.764027 0.913758
vt 0.764027 0.879420
vt 0.074333 0.803634
vt 0.233075 0.731485
vt 0.233075 0.803634
vt 0.592851 0.848365
vt 0.520702 0.689622
vt 0.592851 0.689622
vt 0.415596 0.953248
vt 0.487745 0.919953
vt 0.487745 0.953248
vt 0.068804 0.859100
vt 0.000877 0.893438
vt 0.000877 0.859100
vt 0.814891 0.391264
vt 0.746964 0.564273
vt 0.746964 0.391264
vt 0.713564 0.962173
vt 0.645637 0.987477
vt 0.645637 0.962173
vt 0.828577 0.779475
vt 0.924624 0.754171
vt 0.924624 0.779475
vt 0.998207 0.725714
vt 0.922612 0.748008
vt 0.922612 0.725714
vt 0.746964 0.389510
vt 0.843011 0.355172
vt 0.843011 0.389510
vt 0.190960 0.385978
vt 0.094913 0.558988
vt 0.094913 0.385978
vt 0.520766 0.159620
vt 0.616813 0.000877
vt 0.616813 0.159620
vt 0.613047 0.363943
vt 0.517000 0.205200
vt 0.613047 0.205200
vt 0.764028 0.877666
vt 0.856309 0.781619
vt 0.856309 0.877666
vt 0.421147 0.736056
vt 0.328865 0.663908
vt 0.421147 0.663908
vt 0.328865 0.769351
vt 0.421147 0.769351
vt 0.737919 0.892075
vt 0.645637 0.925370
vt 0.645637 0.892075
vt 0.911186 0.947615
vt 0.839037 0.978064
vt 0.839037 0.947615
vt 0.520702 0.918046
vt 0.612983 0.850119
vt 0.612983 0.918046
vt 0.937047 0.355172
vt 0.844766 0.387321
vt 0.844766 0.355172
vt 0.000877 0.961244
vt 0.068804 0.929095
vt 0.068804 0.961244
vt 0.489499 0.919953
vt 0.517857 0.952102
vt 0.489499 0.952102
vt 0.613047 0.161374
vt 0.520766 0.195712
vt 0.520766 0.161374
vt 0.922612 0.817731
vt 0.980906 0.852068
vt 0.922612 0.852068
vt 0.934986 0.483545
vt 0.876693 0.391264
vt 0.934986 0.391264
vt 0.453350 0.852062
vt 0.511643 0.663908
vt 0.511643 0.852062
vt 0.234830 0.765823
vt 0.327111 0.731485
vt 0.327111 0.765823
vt 0.985407 0.723960
vt 0.922612 0.689622
vt 0.985407 0.689622
vt 0.975735 0.981953
vt 0.912940 0.947615
vt 0.975735 0.947615
vt 0.858063 0.873900
vt 0.920858 0.781619
vt 0.920858 0.873900
vt 0.944246 0.124297
vt 0.851965 0.151927
vt 0.851965 0.124297
vt 0.740232 0.387991
vt 0.712603 0.353653
vt 0.740232 0.353653
vt 0.234830 0.767577
vt 0.262459 0.801915
vt 0.234830 0.801915
vt 0.851965 0.122543
vt 0.944246 0.094913
vt 0.944246 0.122543
vt 0.385134 0.918135
vt 0.292853 0.945104
vt 0.292853 0.918135
vt 0.707399 0.592996
vt 0.799680 0.566028
vt 0.799680 0.592996
vt 0.673062 0.592996
vt 0.707399 0.566028
vt 0.666753 0.871159
vt 0.639785 0.836821
vt 0.666753 0.836821
vt 0.166614 0.879291
vt 0.074333 0.937584
vt 0.074333 0.879291
vt 0.328865 0.393354
vt 0.421147 0.205200
vt 0.421147 0.393354
vt 0.332631 0.189031
vt 0.424912 0.000877
vt 0.424912 0.189031
vt 0.816645 0.579418
vt 0.874939 0.391264
vt 0.874939 0.579418
vt 0.828577 0.752417
vt 0.920858 0.689622
vt 0.920858 0.752417
vt 0.763714 0.345652
vt 0.826573 0.161396
vt 0.826509 0.345674
vt 0.422901 0.389478
vt 0.515246 0.205232
vt 0.515182 0.389510
vt 0.426667 0.185155
vt 0.519011 0.000909
vt 0.518948 0.185187
vt 0.828327 0.253655
vt 0.924374 0.161374
vt 0.924374 0.253655
vt 0.995868 0.876117
vt 0.922612 0.853823
vt 0.995868 0.853823
vt 0.596297 0.977207
vt 0.520702 0.946858
vt 0.596297 0.946858
vt 0.901832 0.687868
vt 0.828577 0.595587
vt 0.901832 0.595587
vt 0.086039 0.138978
vt 0.196579 0.122699
vt 0.168029 0.179901
vt 0.000877 0.129285
vt 0.109026 0.070832
vt 0.285914 0.897669
vt 0.221532 0.805388
vt 0.285914 0.805388
vt 0.511643 0.853816
vt 0.415596 0.918199
vt 0.415596 0.853816
vt 0.327111 0.205200
vt 0.234830 0.407768
vt 0.234830 0.205200
vt 0.158794 0.000877
vt 0.173208 0.021681
vt 0.233075 0.074689
vt 0.517000 0.387991
vt 0.613047 0.365697
vt 0.613047 0.387991
vt 0.190960 0.181655
vt 0.098678 0.384224
vt 0.098678 0.181655
vt 0.828327 0.347691
vt 0.903922 0.255410
vt 0.903922 0.347691
vt 0.292853 0.916381
vt 0.385134 0.840786
vt 0.385134 0.916381
vt 0.000877 0.045305
vt 0.098936 0.038025
vt 0.330877 0.000877
vt 0.234830 0.203446
vt 0.234830 0.000877
vt 0.671307 0.593832
vt 0.598052 0.391264
vt 0.671307 0.391264
vt 0.520702 0.391264
vt 0.596297 0.593832
vt 0.520702 0.593832
vt 0.192714 0.181655
vt 0.223063 0.384224
vt 0.192714 0.384224
vt 0.860075 0.915512
vt 0.764028 0.945861
vt 0.764027 0.915512
vt 0.764027 0.947615
vt 0.837283 0.977964
vt 0.764027 0.977964
vt 0.368448 0.946858
vt 0.292853 0.977207
vt 0.292853 0.946858
vt 0.223063 0.588547
vt 0.192714 0.385978
vt 0.223063 0.385978
vt 0.096924 0.181655
vt 0.000877 0.384224
vt 0.000877 0.181655
vt 0.076472 0.588546
vt 0.000877 0.385978
vt 0.076472 0.385978
vt 0.614801 0.161374
vt 0.688057 0.363943
vt 0.614801 0.363943
vt 0.739673 0.742786
vt 0.761967 0.945354
vt 0.739673 0.945354
vt 0.999123 0.000877
vt 0.925867 0.023171
vt 0.925867 0.000877
vt 0.149928 0.988717
vt 0.074340 0.966397
vt 0.149935 0.966423
vt 0.925881 0.687868
vt 0.903587 0.485300
vt 0.925881 0.485300
vt 0.614801 0.365697
vt 0.710848 0.387991
vt 0.614801 0.387991
vt 0.219777 0.877536
vt 0.074333 0.805388
vt 0.219777 0.805388
vt 0.669992 0.741031
vt 0.762273 0.595587
vt 0.762273 0.741031
vt 0.234830 0.729731
vt 0.327111 0.584286
vt 0.327111 0.729731
vt 0.594605 0.835067
vt 0.666753 0.689622
vt 0.666753 0.835067
vt 0.669992 0.890321
vt 0.737919 0.742786
vt 0.737919 0.890321
vt 0.782284 0.148413
vt 0.850210 0.000877
vt 0.850210 0.148413
vt 0.668238 0.687868
vt 0.520702 0.595587
vt 0.668238 0.595587
vt 0.618567 0.148413
vt 0.710848 0.000877
vt 0.710848 0.148413
vt 0.717786 0.927124
vt 0.645637 0.960419
vt 0.645637 0.927124
vt 0.451595 0.769351
vt 0.223163 0.697498
vt 0.192714 0.664204
vt 0.223163 0.664204
vt 0.451595 0.736056
vt 0.000877 0.895192
vt 0.068804 0.927341
vt 0.000877 0.927341
vt 0.643096 0.918046
vt 0.614738 0.885897
vt 0.643096 0.885897
vt 0.490590 0.566028
vt 0.518948 0.633954
vt 0.490590 0.633954
vt 0.929755 0.917503
vt 0.861829 0.945861
vt 0.861829 0.917503
vt 0.193633 0.899424
vt 0.327111 0.582532
vt 0.094913 0.719485
vt 0.780529 0.159620
vt 0.487608 0.662153
vt 0.292853 0.771105
vt 0.933977 0.913758
vt 0.068804 0.763310
vt 0.761960 0.334384
vt 0.421147 0.568118
vt 0.487745 0.980306
vt 0.980918 0.781639
vt 0.764027 0.595587
vt 0.905676 0.323336
vt 0.068804 0.857346
vt 0.166614 0.964642
vt 0.193633 0.933327
vt 0.193633 0.960385
vt 0.905676 0.325091
vt 0.924113 0.093158
vt 0.192714 0.662449
vt 0.616749 0.945104
vt 0.518948 0.564273
vt 0.745210 0.564273
vt 0.860074 0.913758
vt 0.074333 0.731485
vt 0.520702 0.848365
vt 0.415596 0.919953
vt 0.068804 0.893438
vt 0.814891 0.564273
vt 0.713564 0.987477
vt 0.828577 0.754171
vt 0.998207 0.748008
vt 0.746964 0.355172
vt 0.190960 0.558988
vt 0.520766 0.000877
vt 0.517000 0.363943
vt 0.764027 0.781619
vt 0.328865 0.736056
vt 0.737919 0.925370
vt 0.911186 0.978064
vt 0.520702 0.850119
vt 0.937047 0.387321
vt 0.000877 0.929095
vt 0.517857 0.919953
vt 0.613047 0.195712
vt 0.980906 0.817731
vt 0.876693 0.483545
vt 0.453350 0.663908
vt 0.234830 0.731485
vt 0.922612 0.723960
vt 0.912940 0.981953
vt 0.858063 0.781619
vt 0.944246 0.151927
vt 0.712603 0.387991
vt 0.262459 0.767577
vt 0.851965 0.094913
vt 0.385134 0.945104
vt 0.673062 0.566028
vt 0.639785 0.871159
vt 0.166614 0.937584
vt 0.328865 0.205200
vt 0.332631 0.000877
vt 0.816645 0.391264
vt 0.828577 0.689622
vt 0.763778 0.161374
vt 0.422964 0.205200
vt 0.426730 0.000877
vt 0.828327 0.161374
vt 0.922612 0.876117
vt 0.520702 0.977207
vt 0.828577 0.687868
vt 0.003178 0.076289
vt 0.221532 0.897669
vt 0.511643 0.918199
vt 0.327111 0.407768
vt 0.517000 0.365697
vt 0.190960 0.384224
vt 0.828327 0.255410
vt 0.292853 0.840786
vt 0.330877 0.203446
vt 0.598052 0.593832
vt 0.596297 0.391264
vt 0.223063 0.181655
vt 0.860075 0.945861
vt 0.837283 0.947615
vt 0.368448 0.977207
vt 0.192714 0.588546
vt 0.096924 0.384224
vt 0.000877 0.588546
vt 0.688057 0.161374
vt 0.761967 0.742786
vt 0.999123 0.023171
vt 0.074333 0.988691
vt 0.903587 0.687868
vt 0.710848 0.365697
vt 0.074333 0.877536
vt 0.669992 0.595587
vt 0.234830 0.584286
vt 0.594605 0.689622
vt 0.669992 0.742786
vt 0.782284 0.000877
vt 0.520702 0.687868
vt 0.618567 0.000877
vt 0.717786 0.960419
vt 0.192714 0.697498
vt 0.451595 0.663908
vt 0.068804 0.895192
vt 0.614738 0.918046
vt 0.518948 0.566028
vt 0.929755 0.945861
vn 0.7071 0.0000 0.7071
vn 0.7071 -0.7071 0.0000
vn 0.9045 0.3015 -0.3015
vn -0.7071 0.0000 0.7071
vn -0.3015 -0.3015 -0.9045
vn -0.7071 0.0000 -0.7071
vn 0.7071 0.0000 -0.7071
vn 0.3015 -0.3015 0.9045
vn 0.3015 -0.3015 -0.9045
vn 0.0000 0.0000 -1.0000
vn 0.0000 0.0000 1.0000
vn 0.3015 0.3015 0.9045
vn 0.0000 0.7071 -0.7071
vn -0.5773 -0.5773 -0.5773
vn -0.5773 0.5773 -0.5773
vn -0.3015 0.3015 0.9045
vn -0.3015 0.3015 -0.9045
vn 0.3015 0.3015 -0.9045
vn 0.5773 0.5773 0.5773
vn 0.5773 0.5773 -0.5773
vn -0.3015 -0.3015 0.9045
vn 0.5773 -0.5773 0.5773
vn -0.5773 0.5773 0.5773
vn -0.3015 -0.9045 0.3015
vn -0.5773 -0.5773 0.5773
vn -0.7071 -0.7071 0.0000
vn -0.9045 0.3015 -0.3015
vn 0.0000 0.7071 0.7071
vn 0.5773 -0.5773 -0.5773
vn 0.0000 1.0000 0.0000
vn 0.7071 0.7071 0.0000
vn -0.3015 -0.9045 -0.3015
vn 0.0000 -0.7071 -0.7071
vn 0.3015 -0.9045 0.3015
vn 0.3015 -0.9045 -0.3015
vn -0.7071 0.7071 0.0000
vn 0.0000 -0.7071 0.7071
usemtl Material.001
s 1
f 109/1/1 47/2/2 110/3/3
f 7/4/4 12/5/5 8/6/6
f 5/7/7 2/8/1 1/9/7
f 32/10/8 7/11/4 3/12/4
f 7/13/4 4/14/6 3/15/4
f 31/16/9 8/17/6 33/18/10
f 10/19/8 28/20/11 26/21/11
f 8/22/6 35/23/10 33/24/10
f 6/25/1 26/26/11 24/27/11
f 5/28/7 10/29/8 6/30/1
f 14/31/12 30/32/12 28/33/11
f 61/34/13 49/35/7 62/36/5
f 58/37/9 70/38/14 54/39/6
f 12/40/5 37/41/10 35/42/10
f 20/43/15 40/44/16 39/45/17
f 13/46/18 18/47/19 14/48/12
f 15/49/16 20/50/15 16/51/17
f 16/52/17 39/53/17 37/54/10
f 27/55/10 17/56/20 13/57/18
f 29/58/18 18/59/19 17/60/20
f 25/61/10 13/62/18 9/63/9
f 28/64/11 40/65/16 38/66/11
f 24/67/11 36/68/11 34/69/11
f 23/70/10 9/71/9 5/72/7
f 26/73/11 38/74/11 36/75/11
f 1/76/7 23/77/10 5/78/7
f 6/79/1 22/80/21 2/81/1
f 105/82/4 42/83/22 106/84/1
f 36/85/11 15/86/16 11/87/21
f 34/88/11 11/89/21 7/90/4
f 38/91/11 19/92/23 15/93/16
f 37/94/10 29/95/18 27/96/10
f 78/97/24 104/98/25 87/99/26
f 35/100/10 27/101/10 25/102/10
f 33/103/10 25/104/10 23/105/10
f 23/106/10 31/107/9 33/108/10
f 24/109/11 32/110/8 22/111/21
f 22/112/21 31/113/9 21/114/5
f 41/115/2 44/116/25 43/117/26
f 106/118/1 41/115/2 107/119/3
f 108/120/27 44/121/25 105/122/4
f 107/123/3 116/124/15 108/125/27
f 48/126/22 46/127/26 47/128/2
f 111/129/27 45/130/25 112/131/4
f 112/132/4 48/133/22 109/134/1
f 47/135/2 119/136/20 110/137/3
f 49/138/7 52/139/19 50/140/1
f 63/141/21 52/142/19 64/143/28
f 64/144/28 51/145/20 61/146/13
f 63/147/21 66/148/22 50/149/1
f 53/150/4 56/151/15 54/152/6
f 58/153/9 56/154/15 59/155/13
f 60/156/28 53/157/4 57/158/8
f 60/159/28 56/160/15 55/161/23
f 16/162/17 60/163/28 15/164/16
f 15/165/16 57/166/8 11/167/21
f 12/168/5 59/169/13 16/170/17
f 11/171/21 58/172/9 12/173/5
f 9/174/9 63/175/21 10/176/8
f 14/177/12 61/178/13 13/179/18
f 10/180/8 64/181/28 14/177/12
f 13/182/18 62/183/5 9/184/9
f 67/185/14 66/186/22 68/187/25
f 62/188/5 68/189/25 63/190/21
f 50/191/1 65/192/29 49/193/7
f 49/194/7 67/195/14 62/196/5
f 71/197/22 70/198/14 72/199/29
f 53/200/4 71/201/22 57/202/8
f 57/203/8 72/204/29 58/205/9
f 54/206/6 69/207/25 53/208/4
f 75/209/30 74/210/30 73/211/30
f 82/212/31 97/213/28 101/214/19
f 79/215/32 96/216/14 91/217/33
f 74/218/30 81/219/31 73/220/30
f 29/221/18 77/222/34 30/223/12
f 39/224/17 80/225/35 29/221/18
f 40/226/16 79/227/32 39/228/17
f 30/229/12 78/230/24 40/231/16
f 84/232/2 82/233/31 83/234/2
f 80/225/35 94/235/29 84/236/2
f 80/225/35 83/237/2 77/222/34
f 76/238/30 97/239/28 74/240/30
f 87/241/26 85/242/36 88/243/26
f 76/244/30 85/245/36 86/246/36
f 78/247/24 88/248/26 79/249/32
f 80/225/35 91/250/33 92/251/33
f 91/252/33 89/253/13 92/254/33
f 89/255/13 94/256/29 92/257/33
f 91/258/33 95/259/15 90/260/13
f 84/261/2 93/262/20 81/263/31
f 73/264/30 90/265/13 75/266/30
f 73/267/30 93/268/20 89/269/13
f 75/270/30 95/271/15 85/272/36
f 85/273/36 96/274/14 88/275/26
f 99/276/37 98/277/28 100/278/37
f 98/279/28 104/280/25 100/281/37
f 99/282/37 101/283/19 97/284/28
f 87/285/26 103/286/23 86/287/36
f 83/288/2 99/289/37 77/290/34
f 76/291/30 103/292/23 98/293/28
f 82/294/31 102/295/22 83/296/2
f 78/297/24 99/298/37 100/299/37
f 1/300/7 108/301/27 21/302/5
f 21/303/5 105/304/4 22/305/21
f 2/306/1 107/307/3 1/308/7
f 22/309/21 106/310/1 2/311/1
f 31/312/9 111/313/27 4/314/6
f 3/315/4 109/316/1 32/317/8
f 4/318/6 112/319/4 3/320/4
f 32/321/8 110/322/3 31/323/9
f 115/324/20 114/325/14 116/326/15
f 41/115/2 115/327/20 107/119/3
f 108/328/27 114/329/14 43/330/26
f 43/117/26 113/331/29 41/115/2
f 120/332/15 118/333/29 117/334/14
f 111/335/27 117/336/14 46/337/26
f 46/338/26 118/339/29 47/340/2
f 110/341/3 120/342/15 111/343/27
f 109/1/1 48/344/22 47/2/2
f 7/4/4 11/345/21 12/5/5
f 5/7/7 6/346/1 2/8/1
f 32/10/8 34/347/11 7/11/4
f 7/13/4 8/348/6 4/14/6
f 31/16/9 4/349/6 8/17/6
f 10/19/8 14/350/12 28/20/11
f 8/22/6 12/351/5 35/23/10
f 6/25/1 10/352/8 26/26/11
f 5/28/7 9/353/9 10/29/8
f 14/31/12 18/354/19 30/32/12
f 61/34/13 51/355/20 49/35/7
f 58/37/9 72/356/29 70/38/14
f 12/40/5 16/357/17 37/41/10
f 20/43/15 19/358/23 40/44/16
f 13/46/18 17/359/20 18/47/19
f 15/49/16 19/360/23 20/50/15
f 16/52/17 20/361/15 39/53/17
f 27/55/10 29/362/18 17/56/20
f 29/58/18 30/363/12 18/59/19
f 25/61/10 27/364/10 13/62/18
f 28/64/11 30/365/12 40/65/16
f 24/67/11 26/366/11 36/68/11
f 23/70/10 25/367/10 9/71/9
f 26/73/11 28/368/11 38/74/11
f 1/76/7 21/369/5 23/77/10
f 6/79/1 24/370/11 22/80/21
f 105/82/4 44/371/25 42/83/22
f 36/85/11 38/372/11 15/86/16
f 34/88/11 36/373/11 11/89/21
f 38/91/11 40/374/16 19/92/23
f 37/94/10 39/375/17 29/95/18
f 78/97/24 100/376/37 104/98/25
f 35/100/10 37/377/10 27/101/10
f 33/103/10 35/378/10 25/104/10
f 23/106/10 21/379/5 31/107/9
f 24/109/11 34/380/11 32/110/8
f 22/112/21 32/381/8 31/113/9
f 41/115/2 42/382/22 44/116/25
f 106/118/1 42/382/22 41/115/2
f 108/120/27 43/383/26 44/121/25
f 107/123/3 115/384/20 116/124/15
f 48/126/22 45/385/25 46/127/26
f 111/129/27 46/386/26 45/130/25
f 112/132/4 45/387/25 48/133/22
f 47/135/2 118/388/29 119/136/20
f 49/138/7 51/389/20 52/139/19
f 63/141/21 50/390/1 52/142/19
f 64/144/28 52/391/19 51/145/20
f 63/147/21 68/392/25 66/148/22
f 53/150/4 55/393/23 56/151/15
f 58/153/9 54/394/6 56/154/15
f 60/156/28 55/395/23 53/157/4
f 60/159/28 59/396/13 56/160/15
f 16/162/17 59/397/13 60/163/28
f 15/165/16 60/398/28 57/166/8
f 12/168/5 58/399/9 59/169/13
f 11/171/21 57/400/8 58/172/9
f 9/174/9 62/401/5 63/175/21
f 14/177/12 64/181/28 61/178/13
f 10/180/8 63/402/21 64/181/28
f 13/182/18 61/403/13 62/183/5
f 67/185/14 65/404/29 66/186/22
f 62/188/5 67/405/14 68/189/25
f 50/191/1 66/406/22 65/192/29
f 49/194/7 65/407/29 67/195/14
f 71/197/22 69/408/25 70/198/14
f 53/200/4 69/409/25 71/201/22
f 57/203/8 71/410/22 72/204/29
f 54/206/6 70/411/14 69/207/25
f 75/209/30 76/412/30 74/210/30
f 82/212/31 74/413/30 97/213/28
f 79/215/32 88/414/26 96/216/14
f 74/218/30 82/415/31 81/219/31
f 29/221/18 80/225/35 77/222/34
f 39/224/17 79/416/32 80/225/35
f 40/226/16 78/417/24 79/227/32
f 30/229/12 77/418/34 78/230/24
f 84/232/2 81/419/31 82/233/31
f 80/225/35 92/251/33 94/235/29
f 80/225/35 84/236/2 83/237/2
f 76/238/30 98/420/28 97/239/28
f 87/241/26 86/421/36 85/242/36
f 76/244/30 75/422/30 85/245/36
f 78/247/24 87/423/26 88/248/26
f 80/225/35 79/416/32 91/250/33
f 91/252/33 90/424/13 89/253/13
f 89/255/13 93/425/20 94/256/29
f 91/258/33 96/426/14 95/259/15
f 84/261/2 94/427/29 93/262/20
f 73/264/30 89/428/13 90/265/13
f 73/267/30 81/429/31 93/268/20
f 75/270/30 90/430/13 95/271/15
f 85/273/36 95/431/15 96/274/14
f 99/276/37 97/432/28 98/277/28
f 98/279/28 103/433/23 104/280/25
f 99/282/37 102/434/22 101/283/19
f 87/285/26 104/435/25 103/286/23
f 83/288/2 102/436/22 99/289/37
f 76/291/30 86/437/36 103/292/23
f 82/294/31 101/438/19 102/295/22
f 78/297/24 77/439/34 99/298/37
f 1/300/7 107/440/3 108/301/27
f 21/303/5 108/441/27 105/304/4
f 2/306/1 106/442/1 107/307/3
f 22/309/21 105/443/4 106/310/1
f 31/312/9 110/444/3 111/313/27
f 3/315/4 112/445/4 109/316/1
f 4/318/6 111/446/27 112/319/4
f 32/321/8 109/447/1 110/322/3
f 115/324/20 113/448/29 114/325/14
f 41/115/2 113/331/29 115/327/20
f 108/328/27 116/449/15 114/329/14
f 43/117/26 114/450/14 113/331/29
f 120/332/15 119/451/20 118/333/29
f 111/335/27 120/452/15 117/336/14
f 46/338/26 117/453/14 118/339/29
f 110/341/3 119/454/20 120/342/15
